<svg class="svg-canvas" viewBox="63 73 210 105" width="210" height="105" preserveAspectRatio="xMidYMid meet" version="1.1" xmlns="http://www.w3.org/2000/svg" xmlns:xlink="http://www.w3.org/1999/xlink"> <g data-v-0dd9719b="" fill="#333" class="icon-text-wrapper icon-svg-group iconsvg" transform="translate(76.58499908523908,83.8533821105957)"><g class="iconsvg-imagesvg" transform="translate(0,0)"><g><rect fill="#333" fill-opacity="0" stroke-width="2" x="0" y="0" width="60" height="82.2932382389247" class="image-rect"></rect> <svg x="0" y="0" width="60" height="82.2932382389247" filtersec="colorsb4956259844" class="image-svg-svg primary" style="overflow: visible;"><svg xmlns="http://www.w3.org/2000/svg" viewBox="0.007848739624023438 0 72.91023254394531 100.00000762939453"><path d="M61.41 67.85c0 .21.05.42.07.63-.02-.21-.05-.42-.07-.63zM61.09 65.78c0 .2.07.4.11.6-.04-.2-.07-.38-.11-.6zM60.46 63.1c.06.2.11.39.16.58-.05-.19-.1-.38-.16-.58zM61.22 66.48l.09.6zM60.64 63.77l.15.61zM60.8 64.4c.05.21.09.41.14.62-.05-.21-.09-.41-.14-.62zM61 65.08l.12.6zM61.32 67.18c0 .2.06.41.08.61-.02-.2-.05-.41-.08-.61zM61.63 72v.65c-.01-.21 0-.42 0-.65zM61.61 72.73v.62zM61.63 71.36zM61.48 68.52l.06.63zM61.54 69.24v.61c.03-.21.02-.41 0-.61zM61.59 70v.61zM61.62 70.66v.62c.01-.21.01-.41 0-.62zM59.34 59.88l.22.55zM57.52 56.3zM60.26 62.43c.06.19.12.38.17.57-.05-.19-.11-.38-.17-.57zM57.16 55.73zM56.39 54.63l.36.49zM56.79 55.18c.11.15.21.31.32.47-.11-.16-.21-.32-.32-.47zM16.71 54.89l.36-.49zM58.17 57.43l.28.53zM57.86 56.87l.29.52zM59.81 61.09l.21.59zM59.59 60.49zM60.05 61.76l.18.57zM58.78 58.63l.24.52zM61.58 73.45v.6c-.03-.2-.02-.4 0-.6zM58.47 58l.27.53zM59.07 59.25l.23.54zM52.05 91.76l-.53.35zM55.68 88.58l-.43.46zM56.56 87.52c-.12.16-.25.31-.37.46.12-.15.25-.3.37-.46zM56.12 88.06l-.39.46zM51.44 92.16l-.53.32zM58.09 85.28l-.32.52zM57.38 86.39zM58.43 84.68c-.09.18-.19.35-.29.52.1-.2.2-.34.29-.52zM57.74 85.85c-.11.17-.22.34-.34.51.12-.17.23-.36.34-.51zM52.61 91.36l-.51.37zM53.15 91l-.5.38zM61.52 74.16c0 .2 0 .4-.05.61.02-.21.04-.41.05-.61zM54.23 90l-.45.39zM54.75 89.55l-.44.42zM53.7 90.51l-.47.38zM55.24 89.05l-.44.45zM16.34 55.43l.33-.48zM58.76 84.07c-.09.17-.18.35-.28.52.1-.17.19-.35.28-.52zM61 77.6c0 .2-.08.39-.13.59.07-.19.13-.39.13-.59zM60.87 78.28c0 .2-.09.4-.15.6.06-.2.1-.4.15-.6zM61.38 75.52l-.09.63zM61.46 74.85c0 .21-.05.42-.08.63.03-.21.05-.42.08-.63zM60.71 79c-.06.2-.11.4-.17.61.06-.26.11-.46.17-.61zM61.28 76.2c0 .2-.07.41-.11.61.04-.2.08-.41.11-.61zM61.16 76.9l-.12.6zM59.62 82.22zM59.87 81.58c-.07.19-.15.38-.22.56.07-.14.15-.37.22-.56zM59.36 82.82zM60.33 80.26c-.06.19-.13.38-.19.57.06-.19.13-.38.19-.57zM60.11 80.93l-.21.56zM60.54 79.57c-.06.21-.12.41-.19.61.07-.18.13-.4.19-.61zM57 87l-.36.47zM14 83.47c-.09-.19-.17-.37-.25-.57.1.2.18.38.25.57zM14.31 84.09l-.26-.54zM16 56c.1-.16.2-.32.31-.48-.13.15-.23.31-.31.48zM13.76 82.88c-.09-.19-.16-.38-.24-.57.08.19.15.38.24.57zM15.31 85.9l-.31-.52zM12 76.84c0-.2-.07-.41-.1-.62.1.21.1.42.1.62zM14.63 84.71l-.27-.52zM12.81 80.25c-.06-.21-.11-.41-.17-.61.06.2.11.36.17.61zM12.46 78.93c-.05-.2-.1-.4-.14-.6.04.2.09.4.14.6zM12.3 78.22l-.12-.59zM12.16 77.52c0-.2-.08-.4-.11-.61.03.21.07.41.11.61zM13 80.9l-.18-.57zM13.25 81.57zM15.66 86.45l-.33-.51zM12.64 79.63zM15 85.33l-.3-.53zM20.89 91.77c-.17-.11-.34-.22-.5-.34.16.12.33.23.5.34zM20.31 91.37l-.49-.37zM21.49 92.17l-.49-.34zM16 87l-.33-.48zM23.34 93.17l-.57-.28zM22.7 92.85l-.58-.31zM19.76 91l-.49-.4zM22.11 92.53l-.56-.33zM16.89 88.12c-.13-.15-.26-.31-.38-.48.12.17.25.36.38.48zM17.31 88.61c-.14-.15-.27-.3-.4-.46.09.16.26.31.4.46zM16.45 87.57l-.35-.47zM18.74 90.08l-.44-.41zM19.27 90.55a6.14 6.14 0 0 1-.47-.42 6.14 6.14 0 0 0 .47.42zM18.23 89.6l-.41-.42zM17.75 89.11l-.41-.45zM13.5 82.24c-.08-.19-.15-.38-.22-.57.07.19.14.38.22.57zM12.93 62.85l.18-.6zM13.14 62.16c.06-.19.13-.38.19-.57-.06.19-.13.41-.19.57zM13.37 61.48zM12.58 64.15l.15-.6zM12.75 63.49c.06-.21.11-.41.17-.61-.06.2-.11.4-.17.61zM12.42 64.85c0-.2.09-.4.13-.59-.04.19-.09.39-.13.59zM13.6 60.83c.08-.2.15-.39.23-.58-.08.19-.15.38-.23.58zM15 57.71l.28-.53zM15.29 57.15c.1-.17.19-.35.3-.52-.11.17-.2.37-.3.52zM13.84 60.2l.24-.56zM11.94 76.19c0-.21-.06-.43-.08-.64.02.21.05.45.08.64zM12.26 65.56c0-.2.09-.4.13-.6-.04.2-.09.4-.13.6zM14.1 59.59l.24-.56zM14.38 59c.09-.18.17-.36.25-.54-.08.13-.16.31-.25.54zM14.68 58.32l.27-.53zM15.62 56.57l.3-.5zM11.65 72.65v-.64c-.01.21-.01.43 0 .64zM11.65 71.18v-.62c.01.21 0 .44 0 .62zM11.64 71.91v-.62.62zM11.67 73.33v-.63c-.01.21-.01.42 0 .63zM11.71 74v-.63zM11.84 75.46l-.06-.61zM11.77 74.73v-.61c-.04.21-.02.41 0 .61zM11.71 69.79v-.63c.03.21.01.42 0 .63zM11.67 70.46v-.64c.02.18.01.43 0 .64zM11.92 67.63L12 67zM12 66.93c0-.21.07-.43.11-.64-.02.21-.05.43-.11.64zM11.83 68.35c0-.2.05-.41.08-.61-.03.2-.05.41-.08.61zM11.76 69.08l.06-.62zM12.13 66.28l.12-.63zM59.07 83.44c-.08.18-.17.36-.26.54.09-.18.19-.36.26-.54zM42.19 95l.16-.11zM34.44 95.37h-.49zM33.85 95.35h-.56zM28.12 93.7l-.18-.06zM47.15 93.17h.17zM46.3 93.28h.18zM28.5 93.84l-.17-.07zM33.14 95.32h-.42zM46.72 93.22h.18zM32.56 95.29h-.53zM35.83 95.39zM23.77 93.15h-.35zM25.68 93.17h-.17zM36.47 95.38zM48.17 93.12zM27.73 93.57h-.18zM35.11 95.38zM42 95.14h.06zM47.6 93.13zM48.69 93.13h.26zM30.63 95a.91.91 0 0 0-.16-.11.91.91 0 0 1 .16.11zM29.24 94.17l-.17-.08zM43.22 94.35l.17-.09zM44.7 93.7l.18-.06zM44.32 93.84l.18-.06zM44 94l.17-.08zM43.58 94.17l.17-.08zM30.3 94.76l-.16-.11zM29.6 94.35l-.16-.09zM45.89 93.37h.18zM28.88 94l-.18-.08zM45.49 93.46h.18zM32 95.24h-.46zM42.52 94.76l.17-.1zM42.87 94.55l.16-.1zM45.09 93.57h.18zM30.86 95.14h-.06zM31.35 95.19h-.41zM30 94.55l-.16-.1zM41.13 95.2h-.71zM26.52 93.28h-.18zM23.39 93.19zM40.23 95.26h-.57zM24.66 93.12zM26.93 93.36h-.18zM39.51 95.29h-.68zM50.16 92.9l-.57.3zM49.1 93.16h.24zM26.1 93.22h-.17zM25.23 93.13zM41.89 95.15h-.75zM50.8 92.54l-.54.31zM38.68 95.33h-.54zM38 95.36zM27.33 93.46h-.18zM24.16 93.13h-.27zM37.29 95.37z" fill="none"></path><path d="M30.86 95.14h-.06l-.17-.14a.91.91 0 0 0-.16-.11l-.17-.11-.16-.11-.19-.1-.16-.1-.19-.1-.16-.09-.2-.09-.17-.08-.19-.11-.18-.08-.2-.08-.17-.07-.21-.07-.18-.06-.21-.07h-.18l-.22-.06h-3.91a10.59 10.59 0 0 0-8.65 6.49h19.77c-.07-.18-.14-.35-.22-.53a10.5 10.5 0 0 0-3.46-4.33zM55.32 95.91a10.56 10.56 0 0 0-5.76-2.7h-4.07l-.22.06h-.18l-.21.07-.18.06-.2.08-.18.06-.2.08L44 94l-.2.09-.17.08-.19.09-.17.09-.19.1-.16.1-.18.11-.17.1-.17.11-.16.11-.24.12h-.06a10.56 10.56 0 0 0-3.46 4.33c-.07.18-.15.35-.21.53h19.78a10.56 10.56 0 0 0-2.73-4.05zM29.64 44.16q5.07.15 7.42 2.13 1.56-1.76 7-2.46c-9.2-5.83-5.38-5.83-14.42.33z" fill="#f5851f"></path><path d="M42 95.14H30.9a10.5 10.5 0 0 1 3.46 4.33h4.18A10.56 10.56 0 0 1 42 95.14z" fill="#333"></path><path d="M62.77 55.5A32 32 0 0 0 46.7 6.24a32.58 32.58 0 0 0-8.37-1.51C32.05 3.34 27.61 1.7 25 0q-1 4.35 1.9 6.27a32 32 0 0 0-16.67 48.29c-8.88 9-12 21-9.26 36.12q2.93 5.7 9.43-.81c1.34 2.5 3.87 4.51 7.12 6a10.43 10.43 0 0 1 5.88-2.72h-.05l-.57-.28h-.07l-.58-.31-.56-.33h-.06l-.51-.4-.08-.06c-.17-.11-.34-.22-.5-.34l-.08-.06-.52-.37h-.06l-.49-.4a6.14 6.14 0 0 1-.47-.42h-.06l-.44-.41-.07-.07-.41-.42-.07-.07-.41-.45c-.14-.15-.27-.3-.4-.46-.13-.15-.26-.31-.38-.48l-.06-.07-.35-.47L16 87l-.33-.48-.05-.08-.33-.51-.29-.55-.3-.53v-.09l-.27-.52v-.1l-.26-.54v-.08c-.09-.19-.17-.37-.25-.57-.09-.19-.16-.38-.24-.57v-.07c-.08-.19-.15-.38-.22-.57v-.1c-.07-.18-.14-.37-.2-.56v-.11l-.18-.57v-.08c-.06-.21-.11-.41-.17-.61-.06-.21-.11-.41-.16-.62v-.08c-.05-.2-.1-.4-.14-.6v-.11l-.12-.59v-.11c0-.2-.08-.4-.11-.61v-.07c0-.2-.07-.41-.1-.62 0-.21-.06-.43-.08-.64v-.09l-.06-.61v-.12-1.53-.63-.74-.73-.72-.64-.71l.06-.62v-.11c0-.2.05-.41.08-.61v-.11L12 67v-.08c0-.21.07-.43.11-.64l.12-.63v-.09c0-.2.09-.4.13-.6v-.11c0-.2.09-.4.13-.59v-.11l.15-.6v-.06c.06-.21.11-.41.17-.61l.18-.6v-.09c.06-.19.13-.38.19-.57v-.11c.06-.19.13-.38.2-.56v-.09c.08-.2.15-.39.23-.58l.24-.56.24-.56v-.08c.09-.18.17-.36.25-.54v-.09l.27-.53v-.08l.28-.53c.1-.17.19-.35.3-.52v-.06l.3-.5L16 56c.1-.16.2-.32.31-.48l.05-.08.33-.48v-.06l.36-.49a26.38 26.38 0 0 1-6.79-17.7c0-6.52 4.79-17.7 13.49-12.64 17.24 16.09 8.88 16.09 26.12 0 7.4-4.3 13.49 5.12 13.49 12.64a26.41 26.41 0 0 1-7 17.93l.36.49v.06c.11.15.21.31.32.47v.08c.11.16.21.32.31.49l.05.08c.1.16.2.33.29.5v.07l.29.52.28.53.27.53v.09l.24.52v.1l.23.54v.09l.22.55v.06c.07.2.14.39.22.58l.21.59v.08l.18.57v.1c.06.19.12.38.17.57v.1c.06.2.11.39.16.58v.09l.15.61c.05.21.09.41.14.62v.06l.12.6v.1c0 .2.07.4.11.6v.1l.09.6v.1c0 .2.06.41.08.61v.06c0 .21.05.42.07.63l.06.63V74.15c0 .2 0 .4-.05.61v.08c0 .21-.05.42-.08.63l-.09.63c0 .2-.07.41-.11.61v.09l-.12.6v.1c0 .2-.08.39-.13.59v.09c0 .2-.09.4-.15.6V79c-.06.2-.11.4-.17.61-.06.21-.12.41-.19.61v.08c-.06.19-.13.38-.19.57v.1l-.21.56v.09c-.07.19-.15.38-.22.56v.08c-.08.19-.16.38-.25.57-.08.19-.17.38-.26.56v.06c-.08.18-.17.36-.26.54l-.05.09c-.09.17-.18.35-.28.52v.09c-.09.18-.19.35-.29.52v.08l-.32.52c-.11.17-.22.34-.34.51-.11.17-.23.34-.35.5L57 87l-.36.47-.06.08c-.12.16-.25.31-.37.46l-.07.08-.39.46v.06l-.43.46-.44.45-.44.42-.08.07-.45.39-.08.08-.47.38-.08.06-.5.38-.51.37h-.05l-.53.35h-.08l-.53.32-.11.06-.54.31-.1.05-.57.3a10.56 10.56 0 0 1 5.76 2.7c3.25-1.52 5.78-3.54 7.13-6q6.49 6.51 9.43.81c2.52-14.87-.66-26.21-9.31-35.07z" fill="#333"></path><path d="M53.06 32.05a4.59 4.59 0 1 0 4.59 4.58 4.35 4.35 0 0 0-.15-1.14 2.37 2.37 0 1 1-3.37-3.32 4.68 4.68 0 0 0-1.07-.12zM23.36 36.21a2.37 2.37 0 0 1-1.68-4 4.68 4.68 0 0 0-1.07-.12 4.59 4.59 0 1 0 4.59 4.58 4.81 4.81 0 0 0-.14-1.14 2.39 2.39 0 0 1-1.7.68z" fill="#333"></path></svg></svg> <!----></g></g> <g transform="translate(67,17.676616668701172)"><g data-gra="path-name" fill-rule="" class="tp-name iconsvg-namesvg"><g transform="scale(1)"><g><path d="M14.65-30.41L14.65-30.41Q14.71-30.41 14.71-30.35L14.71-30.35 15.59-30.41 15.94-30.41Q20.04-30.41 24.49-25.02L24.49-25.02Q25.31-23.5 25.55-22.27L25.55-22.27 25.66-22.27Q25.66-20.21 23.91-20.21L23.91-20.21Q21.39-20.74 21.39-22.44L21.39-22.44Q21.39-23.2 21.27-23.26L21.27-23.26Q21.39-23.38 21.39-23.61L21.39-23.61Q21.39-25.84 20.57-26.31L20.57-26.31Q19.39-26.54 18.16-26.54L18.16-26.54Q16.64-26.54 14.12-25.43L14.12-25.43Q14.12-25.31 12.71-24.55L12.71-24.55Q11.37-23.67 10.61-22.56L10.61-22.56Q9.67-21.8 9.67-20.21L9.67-20.21 9.67-20.04Q9.67-19.04 11.31-18.28L11.31-18.28Q14.65-16.05 17.99-12.89L17.99-12.89Q20.98-9.43 21.45-6.74L21.45-6.74Q21.56-6.62 21.56-6.39L21.56-6.39 21.56-6.33Q21.56-6.09 21.45-5.98L21.45-5.98Q21.56-5.8 21.56-5.63L21.56-5.63Q21.56-3.4 19.28-1.7L19.28-1.7Q16.17 0.06 11.13 0.06L11.13 0.06Q5.39 0.06 2.17-4.28L2.17-4.28Q1.46-5.33 1.46-6.39L1.46-6.39 1.46-6.56Q1.46-9.67 6.8-13.36L6.8-13.36Q9.38-15 11.13-15.29L11.13-15.29Q11.13-15.41 11.66-15.47L11.66-15.47Q12.01-15.35 12.01-15.23L12.01-15.23 12.01-15.06Q11.84-15.06 10.9-14.06L10.9-14.06Q6.74-11.31 4.98-9.73L4.98-9.73Q2.87-7.56 2.87-5.8L2.87-5.8Q2.87-2.58 7.38-1.76L7.38-1.76Q7.62-1.76 8.38-1.58L8.38-1.58Q8.44-1.58 8.61-1.7L8.61-1.7Q9.08-1.58 9.43-1.58L9.43-1.58Q12.19-1.58 15-3.87L15-3.87Q17.11-5.92 17.64-7.97L17.64-7.97Q17.64-8.61 17.7-8.67L17.7-8.67Q17.7-12.54 11.43-16.29L11.43-16.29Q5.68-20.33 5.68-23.32L5.68-23.32 5.68-23.44Q5.68-24.43 7.15-26.48L7.15-26.48Q9.02-28.36 10.02-28.65L10.02-28.65Q11.37-29.59 14.65-30.41L14.65-30.41ZM42.66-39.49L42.66-39.49Q44.88-38.32 44.88-37.09L44.88-37.09Q42.89-31.17 42.89-30.06L42.89-30.06 42.89-29.77Q45.82-29.3 48.63-25.66L48.63-25.66 48.75-24.73Q48.75-24.43 46.88-24.08L46.88-24.08Q46.76-24.08 46.52-24.2L46.52-24.2Q43.24-23.79 41.84-23.38L41.84-23.38 41.6-23.55Q39.79-23.55 39.43-21.15L39.43-21.15Q36.91-13.24 36.91-10.9L36.91-10.9 36.91-10.08Q36.91-9.96 36.8-9.96L36.8-9.96Q36.8-9.84 36.91-9.84L36.91-9.84Q36.8-9.14 36.8-9.02L36.8-9.02Q37.09-3.05 38.67-3.05L38.67-3.05 39.2-2.93Q40.66-2.93 43.59-4.8L43.59-4.8Q45.06-5.86 45.59-5.86L45.59-5.86 45.7-5.57 45.7-4.39Q45.35-2.58 43.42-0.64L43.42-0.64Q42.01 0 41.07 0L41.07 0Q38.61 0 34.92-4.39L34.92-4.39Q32.81-7.56 32.81-11.72L32.81-11.72Q32.81-15.23 34.69-22.21L34.69-22.21 34.39-22.32Q31.7-21.8 29.88-21.8L29.88-21.8Q26.84-23.38 26.43-25.02L26.43-25.02 26.43-25.14Q29-26.31 36.27-28.48L36.27-28.48Q37.09-28.48 38.26-32.29L38.26-32.29Q40.08-36.27 41.84-38.67L41.84-38.67Q42.3-39.49 42.66-39.49L42.66-39.49ZM64.75-29.36L64.75-29.36 65.21-29.36Q67.85-29.36 71.31-24.79L71.31-24.79Q71.72-23.14 73.59-21.09L73.59-21.09 73.59-20.04Q70.37-14.06 70.37-12.25L70.37-12.25 70.25-12.25 70.37-11.95Q69.9-10.2 69.79-7.62L69.79-7.62Q70.08-2.46 71.78-2.46L71.78-2.46Q73.77-1.93 73.89-1.35L73.89-1.35 73.89-0.76Q73.89-0.29 72.54 0L72.54 0Q68.61-1.52 66.27-5.98L66.27-5.98Q65.8-7.38 65.8-7.62L65.8-7.62 65.51-7.62Q59.77-0.94 56.19-0.94L56.19-0.94Q53.32-0.94 50.21-5.33L50.21-5.33Q49.75-6.09 49.75-7.32L49.75-7.32 49.75-8.73Q49.75-12.48 53.55-19.57L53.55-19.57Q55.96-23.73 60.76-27.66L60.76-27.66Q62.81-29.36 64.75-29.36L64.75-29.36ZM67.03-25.66L67.03-25.66 66.74-25.84Q60.18-22.68 56.19-13.3L56.19-13.3Q55.14-11.66 54.02-7.5L54.02-7.5 54.2-7.21Q53.96-6.8 53.73-5.51L53.73-5.51Q53.85-5.21 53.85-5.04L53.85-5.04 54.2-5.04Q55.72-5.21 60.47-9.61L60.47-9.61Q67.15-17.11 67.15-20.16L67.15-20.16Q67.68-20.16 68.26-23.09L68.26-23.09 68.26-24.9 67.97-26.02Q67.68-26.02 67.03-25.66L67.03-25.66ZM85.55-46.88L85.55-46.88 85.96-46.88Q88.65-45.94 90.23-43.3L90.23-43.3Q90.23-43.07 90.47-42.6L90.47-42.6Q90.47-41.89 89.24-39.08L89.24-39.08Q87.36-35.21 85.37-27.54L85.37-27.54Q84.26-23.26 83.67-20.33L83.67-20.33Q83.44-19.86 82.79-17.17L82.79-17.17 82.97-16.88Q82.09-15.41 81.09-7.68L81.09-7.68Q82.44-8.44 84.67-11.48L84.67-11.48Q84.96-11.48 85.25-10.49L85.25-10.49Q83.96-1.7 83.26-1.7L83.26-1.7Q82.62 0 81.56 0L81.56 0 81.09 0Q77.64-1.29 75.7-4.57L75.7-4.57Q75.29-6.56 75.29-8.79L75.29-8.79 75.41-8.79 75.29-9.08Q75.7-12.71 76.29-16.05L76.29-16.05 76.29-16.76Q76.7-17.64 78.28-25.72L78.28-25.72Q81.09-38.32 84.96-46.17L84.96-46.17Q85.25-46.82 85.55-46.88L85.55-46.88ZM110.33-30L110.33-30Q115.55-30 119.47-23.03L119.47-23.03 119.47-22.85Q119.47-20.16 115.08-17.64L115.08-17.64Q109.04-13.42 98.96-8.91L98.96-8.91Q97.03-8.91 96.56-7.15L96.56-7.15 96.56-5.63Q98.44-4.98 100.96-4.98L100.96-4.98 120.47-7.62 121.29-7.62 121.29-6.74Q116.48-2.11 108.75-0.23L108.75-0.23 108.75-0.41Q107.87 0 105.53 0L105.53 0 103.36 0Q97.03 0 91.99-7.62L91.99-7.62Q91.99-8.09 88.36-10.9L88.36-10.9Q87.77-12.13 87.77-12.36L87.77-12.36 88.18-12.6 90.94-12.6Q91.52-12.6 92.58-16.29L92.58-16.29Q94.39-20.57 98.96-24.79L98.96-24.79Q104.41-30 110.33-30L110.33-30ZM100.72-16.93L100.72-16.93 100.72-16.76 100.96-16.76Q106.17-19.34 111.91-23.26L111.91-23.26Q113.32-24.43 113.32-24.55L113.32-24.55 113.32-25.02Q112.73-25.02 112.73-25.2L112.73-25.2Q108.57-24.55 103.13-19.8L103.13-19.8Q100.84-17.52 100.72-16.93L100.72-16.93Z" transform="translate(-1.4600000381469727, 46.880001068115234)"></path></g> <!----> <!----> <!----> <!----> <!----> <!----> <!----></g></g> <!----></g></g></svg>